<svg width="177" height="157" viewBox="0 0 177 157" fill="none" xmlns="http://www.w3.org/2000/svg">
<path d="M88.5 157C137.377 157 177 121.855 177 78.5002C177 35.1458 137.377 0 88.5 0C39.6228 0 0 35.1458 0 78.5002C0 121.855 39.6228 157 88.5 157Z" fill="#0861EB"/>
<path d="M98.9798 40.8789C95.355 40.8789 91.7265 42.0989 88.9608 44.5422C87.6471 45.7039 86.6048 47.0842 85.8935 48.6038C85.1823 50.1235 84.8162 51.7527 84.8162 53.3981C84.8162 55.0435 85.1823 56.6727 85.8935 58.1923C86.6048 59.712 87.6471 61.0923 88.9608 62.2539C88.9778 62.2673 88.995 62.2803 89.0125 62.2931L109.323 79.0725C109.664 79.3536 110.112 79.5103 110.577 79.5109H110.61C111.076 79.5094 111.524 79.3516 111.864 79.0693L132.182 62.2931C137.949 57.5307 137.75 49.4256 132.226 44.5422C132.054 44.3878 131.848 44.2656 131.622 44.1825H131.614C126.053 39.7669 117.543 39.8159 112.196 44.5422L110.588 45.9587L108.991 44.5422C107.676 43.3778 106.115 42.455 104.397 41.8264C102.679 41.1978 100.838 40.8758 98.9798 40.8789ZM98.9798 44.117C101.653 44.117 104.327 45.0329 106.392 46.8514L109.294 49.4158C109.639 49.7204 110.106 49.8915 110.594 49.8915C111.081 49.8915 111.548 49.7204 111.893 49.4158L114.795 46.8514C115.767 45.9847 116.922 45.2971 118.194 44.8277C119.466 44.3584 120.83 44.1166 122.207 44.1166C123.585 44.1166 124.949 44.3584 126.221 44.8277C127.493 45.2971 128.648 45.9847 129.619 46.8514C129.623 46.8514 129.627 46.8514 129.63 46.8514C133.749 50.4984 133.875 56.4186 129.667 59.8922L110.595 75.6383L91.5679 59.9284C90.5881 59.075 89.8098 58.0568 89.2785 56.9336C88.7473 55.8105 88.4736 54.6048 88.4736 53.3867C88.4736 52.1687 88.7473 50.9628 89.2785 49.8396C89.8098 48.7164 90.5881 47.6984 91.5679 46.845C92.54 45.9796 93.695 45.2928 94.9669 44.8241C96.2388 44.3555 97.6025 44.1173 98.9798 44.117ZM35.0459 71.1409C34.5569 71.1409 34.0879 71.313 33.7422 71.6196C33.3964 71.9263 33.2021 72.3426 33.2021 72.7763V106.086C33.2021 106.52 33.3964 106.936 33.7422 107.243C34.0879 107.549 34.5569 107.722 35.0459 107.722H55.2202C55.7092 107.722 56.1782 107.549 56.5239 107.243C56.8697 106.936 57.064 106.52 57.064 106.086V103.676L91.5052 114.025C91.5526 114.037 91.6006 114.048 91.649 114.057C95.6573 114.96 100.285 114.427 103.781 112.34L139.45 95.1487C139.459 95.1488 139.467 95.1488 139.476 95.1487L140.35 94.7071C141.791 93.9861 142.884 92.8217 143.423 91.4343C143.961 90.0469 143.909 88.5328 143.274 87.1777C142.142 84.803 139.918 83.7169 138.182 83.4912C136.445 83.2622 135.018 83.7008 135.018 83.7008C134.957 83.722 134.898 83.7459 134.841 83.7727L115.179 91.8583C115.201 91.6392 115.256 91.4263 115.256 91.2039C115.256 87.5275 111.827 84.5381 107.664 84.5381H91.295C91.2213 84.4269 91.1438 84.2698 91.0775 84.1684C90.2041 82.7644 89.1034 81.4819 87.8103 80.3613C84.218 77.2542 79.3943 75.5219 74.3768 75.5369H57.064V72.7891C57.064 72.3554 56.8697 71.9395 56.5239 71.6328C56.1782 71.3261 55.7092 71.1537 55.2202 71.1537H35.0459V71.1409ZM36.8896 74.4118H53.3765V104.451H36.8896V74.4118ZM57.0603 78.7946H74.3768C76.8711 78.7851 79.3307 79.3126 81.5446 80.3318C83.7585 81.3509 85.6606 82.8313 87.0876 84.6459C87.3642 84.9991 87.6186 85.3654 87.8509 85.7383C88.1422 86.2028 88.3376 86.4842 88.4925 86.8047L88.9719 87.7957H107.664C109.876 87.7957 111.573 89.2937 111.573 91.1876C111.573 92.6071 110.614 93.7977 109.205 94.3047H109.187C108.722 94.4682 108.21 94.5666 107.664 94.5666H82.0173V97.8374H107.664C108.438 97.8374 109.165 97.6997 109.869 97.51C110.088 97.497 110.303 97.4495 110.503 97.3695L136.235 86.7852C136.268 86.7852 136.876 86.6083 137.647 86.7097C138.44 86.8078 139.199 87.0044 139.882 88.4338C140.18 89.0486 140.207 89.7401 139.957 90.3718C139.708 91.0035 139.201 91.5293 138.536 91.8452L137.669 92.2704L101.874 109.534C101.824 109.559 101.775 109.586 101.727 109.616C99.2932 111.065 95.5172 111.545 92.5635 110.881H92.5562L57.064 100.218V78.7846L57.0603 78.7946Z" fill="white"/>
</svg>
