<svg width="182" height="178" viewBox="0 0 182 178" fill="none" xmlns="http://www.w3.org/2000/svg">
<path fill-rule="evenodd" clip-rule="evenodd" d="M182 89C182 138.228 141.334 178 91 178C40.6656 178 0 138.228 0 89C0 39.7719 40.6656 0 91 0C141.334 0 182 39.7719 182 89Z" fill="#0861EB"/>
<path fill-rule="evenodd" clip-rule="evenodd" d="M64.3902 66.75C64.0328 66.7679 63.688 66.8842 63.3954 67.0857C63.1029 67.2871 62.8746 67.5655 62.737 67.8885L53.7166 88.9925H36.0474C35.5446 88.9925 35.0624 89.188 34.7069 89.5357C34.3513 89.8835 34.1516 90.3549 34.1516 90.8467C34.1516 91.3385 34.3513 91.8099 34.7069 92.1576C35.0624 92.5054 35.5446 92.7009 36.0474 92.7009H54.9792C55.3524 92.701 55.7174 92.5935 56.0283 92.3917C56.3393 92.1898 56.5824 91.9024 56.7272 91.566L64.2878 73.8776L77.8582 113.687C77.9815 114.051 78.2173 114.369 78.5332 114.596C78.8491 114.824 79.2294 114.95 79.6218 114.958C80.0141 114.965 80.3991 114.853 80.7236 114.637C81.0482 114.421 81.2963 114.113 81.4337 113.753L89.4758 92.7045H98.6137C98.9353 92.7045 99.2515 92.6247 99.5328 92.4723C99.814 92.3198 100.051 92.0998 100.221 91.8331L107.494 80.4265L115.767 106.24C115.876 106.577 116.082 106.877 116.36 107.103C116.637 107.33 116.975 107.474 117.334 107.519C117.693 107.564 118.057 107.507 118.384 107.356C118.711 107.205 118.987 106.966 119.18 106.666L128.075 92.7045H145.979C146.482 92.7045 146.964 92.5094 147.32 92.1617C147.675 91.814 147.875 91.3421 147.875 90.8503C147.875 90.3586 147.675 89.8871 147.32 89.5394C146.964 89.1916 146.482 88.9962 145.979 88.9962H127.021C126.699 88.9965 126.382 89.0771 126.101 89.2302C125.82 89.3833 125.583 89.6043 125.413 89.8716L118.145 101.278L109.879 75.4683C109.772 75.1281 109.567 74.8249 109.288 74.5956C109.01 74.3662 108.67 74.2204 108.308 74.175C107.947 74.1297 107.581 74.1867 107.252 74.3398C106.923 74.4929 106.647 74.7355 106.455 75.0383L97.5634 88.9962H88.1601C87.7723 88.9952 87.3935 89.1109 87.0749 89.3271C86.7562 89.5432 86.513 89.8497 86.378 90.2053L79.7578 107.538L66.2898 68.022C66.1592 67.6369 65.9031 67.3041 65.5606 67.075C65.2181 66.8459 64.8083 66.733 64.3939 66.7536L64.3902 66.75Z" fill="white"/>
</svg>
