<svg width="231" height="214" viewBox="0 0 231 214" fill="none" xmlns="http://www.w3.org/2000/svg">
<path d="M219.45 21.4H207.9V10.7C207.9 4.78611 202.728 0 196.35 0C189.972 0 184.8 4.78611 184.8 10.7V26.9372C178.404 31.3606 172.232 35.9905 166.238 40.7863C148.854 28.6728 127.327 21.4 103.95 21.4C46.6343 21.4 0 64.597 0 117.7C0 170.803 46.6343 214 103.95 214C161.266 214 207.9 170.803 207.9 117.7C207.9 96.0421 200.049 76.0995 186.974 59.996C192.15 54.4427 197.148 48.7257 201.923 42.8H219.45C225.828 42.8 231 38.0139 231 32.1C231 26.1861 225.828 21.4 219.45 21.4ZM184.8 117.7C184.8 158.996 148.532 192.6 103.95 192.6C59.3682 192.6 23.1 158.996 23.1 117.7C23.1 76.4044 59.3682 42.8 103.95 42.8C120.532 42.8 135.954 47.462 148.798 55.4271C145.438 58.3878 142.096 61.3656 138.793 64.3787C136.412 66.5925 134.079 68.8492 131.731 71.0919C123.451 66.8365 114.071 64.2 103.95 64.2C72.109 64.2 46.2 88.2022 46.2 117.7C46.2 147.198 72.109 171.2 103.95 171.2C135.791 171.2 161.7 147.198 161.7 117.7C161.7 108.324 158.854 99.6341 154.26 91.9633C156.682 89.788 159.117 87.6266 161.506 85.4213C164.758 82.3611 167.973 79.2656 171.169 76.1519C179.768 88.0514 184.8 102.339 184.8 117.7ZM138.6 117.7C138.6 135.401 123.057 149.8 103.95 149.8C84.8428 149.8 69.3 135.401 69.3 117.7C69.3 99.999 84.8428 85.6 103.95 85.6C107.944 85.6 111.722 86.3554 115.296 87.5121C108.452 94.7389 101.881 102.218 95.783 110.134C92.9694 113.799 92.8043 118.872 95.783 122.738C99.5402 127.614 106.853 128.746 112.117 125.266C120.662 119.616 128.735 113.529 136.536 107.189C137.785 110.5 138.6 114 138.6 117.7Z" fill="#0861EB"/>
</svg>
