<svg width="171" height="209" viewBox="0 0 171 209" fill="none" xmlns="http://www.w3.org/2000/svg">
<path d="M126.834 96.8296C128.433 96.9043 130.072 96.9293 131.712 96.8795C132.163 96.8546 132.594 96.8297 133.024 96.8048C132.942 101.212 131.651 106.167 130.236 108.06C130.236 108.06 130.236 108.06 130.216 108.06C127.653 111.471 123.718 113.836 118.552 115.106C114.472 116.077 110.228 116.152 106.272 115.33C99.6505 113.986 94.5255 110.325 92.1885 105.246C91.635 104.051 91.225 102.756 90.979 101.361C90.938 101.187 90.897 101.013 90.8765 100.814C90.815 100.415 90.774 100.017 90.733 99.6185C90.692 99.1205 90.651 98.6225 90.651 98.0996V98V97.9751C91.0405 97.9253 91.43 97.8506 91.8195 97.8008C92.1065 97.7759 92.3935 97.726 92.6805 97.6762C93.767 97.5268 94.8535 97.4024 95.94 97.2779C97.785 97.0538 99.63 96.8795 101.495 96.755C102.582 96.6803 103.648 96.6056 104.734 96.5309H104.898C109.203 96.2819 113.508 96.2321 117.793 96.3566C119.392 96.4064 120.991 96.4811 122.569 96.5807L123.779 96.6554C124.763 96.7052 125.788 96.7798 126.813 96.8296C126.813 96.8296 126.813 96.8296 126.834 96.8296ZM35.834 79.7234V79.076C36.08 72.6269 38.8885 66.6758 43.7265 62.2685C45.633 60.5504 63.4065 45.6602 100.491 55.6202C102.151 56.0435 103.197 58.0354 102.848 60.0523C102.479 62.0692 100.839 63.3392 99.179 62.891C97.3135 62.393 95.5095 61.9697 93.7465 61.5962C87.3095 60.2516 81.59 59.7037 76.5675 59.7037C57.1335 59.7037 47.9085 67.7963 47.4165 68.2445C44.075 71.2823 42.148 75.2413 41.984 79.3996C41.9635 80.1217 41.984 80.819 42.107 81.5162C42.9885 88.289 49.2205 93.6674 55.227 95.0618C58.63 95.8586 62.1765 95.7839 65.764 95.2859C65.805 95.261 65.8665 95.261 65.9075 95.261C66.543 95.1863 67.199 95.0867 67.8345 94.9871C67.8755 94.9871 67.896 94.9621 67.937 94.9621C70.479 94.5388 72.939 93.9662 75.3375 93.4184C76.506 93.1445 77.6745 92.8706 78.843 92.6216C80.073 92.3477 81.2415 92.0987 82.3485 91.8746C83.0455 91.7501 83.7015 91.6256 84.3575 91.5011C85.362 91.3019 86.3255 91.1525 87.289 90.9782H87.3505C88.4165 90.8039 89.4825 90.6296 90.569 90.4802C91.5735 90.3308 92.578 90.1814 93.5825 90.0569C93.726 90.032 93.8695 90.0071 94.0335 90.0071C95.0175 89.8826 96.022 89.7581 97.006 89.6585C98.1745 89.534 99.3225 89.4344 100.491 89.3348C101.864 89.2103 103.238 89.1356 104.611 89.0609C105.862 88.9862 107.092 88.9364 108.342 88.8866C113.18 88.7372 118.039 88.8119 122.877 89.1107L124.086 89.1854C125.091 89.2601 126.095 89.3098 127.1 89.3596C129.457 89.4841 131.794 89.5091 134.029 89.2103C134.562 89.1605 135.095 89.0608 135.607 88.9612C135.648 88.9612 135.689 88.9364 135.73 88.9364C137.555 88.538 139.277 87.8905 140.835 86.8696C146.37 83.2093 147.989 75.0671 148.42 69.4646C146.923 66.7754 144.34 64.6339 141.388 63.613C137.965 62.4676 134.029 62.8163 130.872 64.6091C129.334 65.4806 127.51 64.6589 126.792 62.7914C126.075 60.9239 126.731 58.7078 128.289 57.8363C132.779 55.2965 138.17 54.7736 143.049 56.417C144.771 57.0146 146.39 57.8612 147.887 58.9568C145.611 46.0835 137.37 24.9932 119.638 11.8211C117.075 23.2004 109.921 31.3925 100.43 33.6335C100.225 33.6833 100.019 33.7082 99.835 33.7082C98.4 33.7082 97.1085 32.4632 96.8215 30.6704C96.4935 28.6535 97.58 26.6864 99.261 26.3129C106.846 24.5201 112.442 17.5979 114.041 8.11095C108.383 4.82415 101.926 2.33415 94.546 1.01445C83.681 -0.927747 71.545 -0.0811483 58.4455 3.55425C59.86 6.71655 60.147 10.6259 59.5115 14.0123C58.6915 18.32 56.7645 21.806 54.899 25.1675L54.079 26.6864C52.4595 29.6495 50.8605 33.1106 51.0655 36.4223C51.1885 38.489 49.9175 40.2818 48.2365 40.4312C48.1545 40.4312 48.0725 40.4561 47.9905 40.4561C46.3915 40.4561 45.059 38.9621 44.936 36.995C44.5875 31.3925 46.8835 26.3627 48.9335 22.5779L49.7945 21.0092C51.414 18.071 52.9515 15.3071 53.505 12.344C53.9765 9.90375 53.464 6.74145 51.906 5.59605C43.952 8.35995 37.3715 11.846 31.857 16.1537C23.78 22.4783 17.8145 30.9692 15.0675 40.1075C12.054 50.1422 12.997 61.2725 17.5685 69.1907C22.1195 77.0342 28.823 80.8688 35.834 79.7234ZM102.131 127.407C102.274 125.539 102.397 123.722 102.52 122.004C102.397 121.979 102.295 121.929 102.172 121.879C101.598 121.73 101.065 121.53 100.511 121.306C100.142 121.182 99.8145 121.032 99.466 120.883C99.138 120.759 98.8305 120.609 98.523 120.46C98.154 120.285 97.8055 120.111 97.457 119.912C96.719 119.538 96.0015 119.115 95.3045 118.642C94.8945 118.368 94.4845 118.094 94.095 117.795C93.7055 117.522 93.316 117.198 92.947 116.874C92.578 116.575 92.2295 116.277 91.9015 115.953C91.6555 115.729 91.4095 115.48 91.184 115.231C90.9585 115.007 90.7535 114.783 90.5485 114.558C90.1795 114.16 89.831 113.737 89.503 113.289C89.2365 112.965 89.011 112.641 88.7855 112.317C88.0475 111.247 87.3915 110.101 86.838 108.906C86.674 108.533 86.4895 108.159 86.346 107.786C86.182 107.387 86.0385 107.014 85.9155 106.615C85.813 106.341 85.731 106.068 85.649 105.769C85.485 105.246 85.3415 104.723 85.2185 104.2C85.116 103.777 85.034 103.353 84.952 102.955C84.8905 102.582 84.829 102.208 84.7675 101.835C84.665 101.013 84.583 100.191 84.542 99.3446C84.542 99.245 84.5215 99.1454 84.542 99.0458H84.5215V99.0209C84.378 99.0458 84.214 99.0707 84.05 99.1205C83.1275 99.2948 82.164 99.4939 81.1185 99.718C80.729 99.7927 80.319 99.8675 79.9295 99.9671C78.9045 100.191 77.8795 100.44 76.8545 100.664C76.7315 100.714 76.588 100.739 76.465 100.764C75.276 101.038 74.087 101.312 72.898 101.561C72.1395 101.735 71.381 101.884 70.6225 102.034C72.1395 105.669 73.9435 108.757 75.932 112.168C79.9295 118.966 84.3985 126.61 88.5395 141.426H101.372C101.393 137.267 101.762 132.287 102.131 127.407ZM158.875 81.9146C152.663 81.9146 147.6 88.0649 147.6 95.6096V126.759C145.447 124.892 142.885 123.846 140.179 123.846C140.158 123.846 140.158 123.846 140.138 123.846C136.714 123.871 133.496 125.49 131.097 128.453L100.901 165.628C96.637 170.882 94.3 177.804 94.3 185.175V205.17C94.3 207.236 95.6735 208.905 97.375 208.905C99.0765 208.905 100.45 207.236 100.45 205.17V185.175C100.45 179.796 102.172 174.717 105.288 170.882L135.464 133.707C136.715 132.163 138.375 131.316 140.159 131.316H140.179C141.942 131.316 143.603 132.163 144.853 133.682L145.632 134.628C148.194 137.74 148.215 142.82 145.653 145.957L127.981 167.695C126.792 169.164 126.793 171.53 128.002 172.974C129.212 174.418 131.159 174.418 132.348 172.949L150.019 151.211C152.233 148.472 153.401 144.986 153.606 141.426C153.668 141.102 153.729 140.778 153.729 140.43V95.6096C153.729 92.1734 156.025 89.3846 158.854 89.3846C161.683 89.3846 163.979 92.1734 163.979 95.6096V150.365C163.979 155.793 162.237 160.922 159.059 164.757L139.052 189.109C136.633 192.047 135.3 195.957 135.3 200.115V205.17C135.3 207.236 136.673 208.905 138.375 208.905C140.076 208.905 141.45 207.236 141.45 205.17V200.115C141.45 197.949 142.147 195.907 143.397 194.388L163.426 170.061C167.751 164.807 170.129 157.81 170.129 150.39V95.6096C170.15 88.0649 165.086 81.9146 158.875 81.9146ZM39.0525 128.453C36.654 125.49 33.4355 123.846 30.012 123.846C29.9915 123.846 29.9915 123.846 29.971 123.846C27.265 123.846 24.7025 124.867 22.55 126.759V95.6096C22.55 88.0649 17.4865 81.9146 11.275 81.9146C5.0635 81.9146 0 88.0649 0 95.6096V150.365C0 157.81 2.378 164.782 6.7035 170.036L26.732 194.363C27.9825 195.882 28.6795 197.924 28.6795 200.09V205.145C28.6795 207.211 30.053 208.88 31.7545 208.88C33.456 208.88 34.8295 207.211 34.8295 205.145V200.09C34.8295 195.932 33.497 192.022 31.078 189.084L11.0495 164.757C7.8925 160.922 6.1295 155.793 6.1295 150.365V95.6096C6.1295 92.1734 8.4255 89.3846 11.2545 89.3846C14.0835 89.3846 16.3795 92.1734 16.3795 95.6096V140.43C16.3795 140.778 16.4205 141.102 16.5025 141.426C16.7075 144.986 17.876 148.497 20.09 151.211L37.761 172.949C38.95 174.418 40.8975 174.443 42.107 172.974C43.3165 171.53 43.3165 169.164 42.1275 167.695L24.4565 145.957C21.9145 142.82 21.9145 137.74 24.477 134.628L25.256 133.682C26.5065 132.163 28.167 131.316 29.93 131.316H29.9505C31.734 131.316 33.3945 132.163 34.645 133.707L64.821 170.882C67.937 174.717 69.659 179.796 69.659 185.175V205.17C69.659 207.236 71.0325 208.905 72.734 208.905C74.4355 208.905 75.809 207.236 75.809 205.17V185.175C75.809 177.804 73.472 170.857 69.208 165.628L39.0525 128.453Z" fill="#0861EB"/>
</svg>
