<svg width="288" height="208" viewBox="0 0 288 208" fill="none" xmlns="http://www.w3.org/2000/svg">
<path d="M237.277 139.782L213.24 132.604L189.203 139.782L187.056 142.855L197.778 184.256L233.518 203.172L281.407 203.25L237.277 139.782Z" fill="white"/>
<path d="M98.1708 139.782L73.443 132.401L50.0968 139.782L5.74445 203.336L53.8551 203.172L86.4025 184.561L100.318 142.855L98.1708 139.782Z" fill="white"/>
<path d="M200.032 28.4512L177.494 44.7015V60.9559H233.84V28.4512H200.032Z" fill="white"/>
<path d="M200.032 44.702C182.312 44.702 161.716 44.702 143.687 44.702V12.1973H200.032C200.032 22.5343 200.032 34.3645 200.032 44.702ZM74.1339 105.34L98.1709 139.782C95.9284 140.914 94.0295 142.224 89.6289 142.224C81.8814 142.224 81.8814 138.159 74.1339 138.159C66.3864 138.159 66.3864 142.224 58.6389 142.224C54.2383 142.224 52.3395 140.914 50.0969 139.782L74.1339 105.34ZM213.24 105.34L237.277 139.782C235.034 140.914 233.135 142.224 228.735 142.224C220.987 142.224 220.987 138.159 213.24 138.159C205.492 138.159 205.492 142.224 197.745 142.224C193.344 142.224 191.445 140.914 189.203 139.782L213.24 105.34Z" fill="#CDDCF9"/>
<path d="M172.569 124.053H172.564L142.936 111.985L114.81 124.053H114.804C114.573 124.353 60.2419 194.881 53.8551 203.172C63.706 203.172 221.178 203.172 231.022 203.172H233.518C231.868 201.029 176.31 128.907 172.569 124.053Z" fill="white"/>
<path d="M143.687 86.563L172.564 124.053C166.85 124.712 166.157 128.001 159.182 128.001C151.434 128.001 151.434 123.939 143.687 123.939C135.939 123.939 135.939 128.001 128.192 128.001C121.216 128.001 120.523 124.712 114.81 124.053L143.687 86.563Z" fill="#CDDCF9"/>
<path d="M286.765 201.653L218.271 103.508C217.314 102.136 215.368 101.27 213.24 101.27C211.113 101.27 209.166 102.136 208.208 103.508L186.808 134.167C185.041 131.872 154.626 92.3932 149.321 85.5068C149.321 76.8087 149.321 62.7751 149.321 48.7709H171.859V60.9556C171.859 63.2028 174.382 65.0253 177.493 65.0253H233.839C236.95 65.0253 239.473 63.2028 239.473 60.9556V28.4513C239.473 26.204 236.95 24.3816 233.839 24.3816H205.666V12.1969C205.666 9.9496 203.143 8.12719 200.032 8.12719H149.321C149.321 6.05938 149.321 4.64638 149.321 4.0697C149.321 1.82241 146.798 0 143.686 0C140.575 0 138.052 1.82241 138.052 4.0697C138.052 4.97073 138.052 7.90621 138.052 12.1969V44.7016C138.052 60.0028 138.052 75.9662 138.052 85.5072C132.726 92.42 102.379 131.812 100.564 134.167L79.1643 103.509C78.207 102.136 76.2608 101.271 74.1326 101.271C72.0045 101.271 70.0589 102.136 69.101 103.509L0.609083 201.653C-1.27906 204.359 1.45257 207.555 5.64017 207.555C320.646 207.113 173.064 207.553 281.733 207.555C285.928 207.555 288.65 204.354 286.765 201.653ZM205.667 44.7016V32.521H228.205V56.8863H183.129V48.7713H200.032C203.144 48.7713 205.667 46.9489 205.667 44.7016ZM149.321 16.2666H194.398V40.6319H149.321V16.2666ZM213.24 114.381L229.798 138.108C229.482 138.138 229.136 138.155 228.735 138.155C226.692 138.155 225.992 137.787 224.3 136.899C222.04 135.713 218.945 134.089 213.24 134.089C207.536 134.089 204.441 135.713 202.181 136.899C200.489 137.787 199.788 138.155 197.745 138.155C197.344 138.155 196.996 138.138 196.68 138.108L213.24 114.381ZM143.687 94.9339L164.648 122.147C162.243 123.346 161.676 123.93 159.182 123.93C157.137 123.93 156.437 123.563 154.744 122.676C152.484 121.492 149.389 119.869 143.687 119.869C137.984 119.869 134.889 121.492 132.629 122.676C130.937 123.563 130.236 123.93 128.192 123.93C125.703 123.93 125.173 123.368 122.726 122.147L143.687 94.9339ZM74.1338 114.381L90.6943 138.108C90.3776 138.138 90.0305 138.154 89.6288 138.154C87.5857 138.154 86.8853 137.787 85.1933 136.899C82.9333 135.713 79.8382 134.089 74.1338 134.089C68.4294 134.089 65.3343 135.713 63.0743 136.899C61.3822 137.787 60.6818 138.154 58.6388 138.154C58.2376 138.154 57.8911 138.138 57.5755 138.109L74.1338 114.381ZM14.7907 199.415L52.412 145.507C54.0748 145.97 56.0959 146.293 58.6393 146.293C64.3437 146.293 67.4388 144.67 69.6988 143.484C71.3909 142.596 72.0913 142.228 74.1343 142.228C76.1774 142.228 76.8778 142.596 78.5699 143.484C80.8299 144.67 83.9249 146.293 89.6294 146.293C90.2018 146.293 90.7416 146.273 91.2634 146.243L50.3013 199.415H14.7907ZM63.4383 199.102L117.209 129.302C119.461 130.483 122.548 132.069 128.192 132.069C133.895 132.069 136.989 130.447 139.249 129.263C140.942 128.375 141.642 128.008 143.687 128.008C145.732 128.008 146.432 128.375 148.125 129.263C150.385 130.447 153.48 132.069 159.182 132.069C164.826 132.069 167.914 130.483 170.166 129.302L223.936 199.102C216.031 199.102 70.1006 199.102 63.4383 199.102ZM237.073 199.415L196.111 146.242C196.633 146.273 197.172 146.293 197.745 146.293C203.45 146.293 206.545 144.669 208.805 143.483C210.497 142.595 211.197 142.228 213.24 142.228C215.283 142.228 215.984 142.595 217.676 143.483C219.936 144.669 223.031 146.293 228.735 146.293C231.278 146.293 233.3 145.97 234.962 145.507L272.583 199.415H237.073Z" fill="#487FE9"/>
</svg>
