<svg width="232" height="210" viewBox="0 0 232 210" fill="none" xmlns="http://www.w3.org/2000/svg">
<path d="M174.106 37.8045C155.249 25.0751 130.938 19.2161 105.564 21.3435C64.5676 24.7612 32.0296 49.7318 28.1472 80.7705C25.0506 105.671 40.349 129.526 68.1727 142.987C73.3029 145.464 76.7693 149.23 78.0172 153.45H73.95C71.408 153.45 69.3281 155.019 69.3281 156.937C69.3281 158.856 71.408 160.425 73.95 160.425H78.5719V170.887H73.95C71.408 170.887 69.3281 172.457 69.3281 174.375C69.3281 176.293 71.408 177.862 73.95 177.862H78.5719V184.837C78.5719 190.592 84.8114 195.3 92.4375 195.3H97.0594V198.787C97.0594 204.542 103.299 209.25 110.925 209.25H120.169C127.795 209.25 134.034 204.542 134.034 198.787V195.3H138.656C146.282 195.3 152.522 190.592 152.522 184.837V177.862H157.144C159.686 177.862 161.766 176.293 161.766 174.375C161.766 172.457 159.686 170.887 157.144 170.887H152.522V160.425H157.144C159.686 160.425 161.766 158.856 161.766 156.937C161.766 155.019 159.686 153.45 157.144 153.45H153.03C154.232 149.265 157.698 145.498 162.829 143.022C188.203 130.746 203.316 109.891 203.316 87.1875C203.316 68.355 192.64 50.3595 174.06 37.8045H174.106ZM124.791 198.787C124.791 200.706 122.711 202.275 120.169 202.275H110.925C108.383 202.275 106.303 200.706 106.303 198.787V195.3H124.791V198.787ZM143.278 184.837C143.278 186.756 141.198 188.325 138.656 188.325H92.4375C89.8955 188.325 87.8156 186.756 87.8156 184.837V177.862H143.278V184.837ZM143.278 170.887H87.8156V160.425H143.278V170.887ZM157.883 137.128C150.072 140.895 144.988 146.789 143.648 153.45H87.4921C86.198 146.859 81.0215 140.93 73.1643 137.128C48.2986 125.062 34.5716 103.718 37.3447 81.4331C40.8112 53.7075 69.929 31.3526 106.58 28.2836C129.32 26.4004 151.089 31.6316 167.959 43.0009C184.598 54.2306 194.119 70.3429 194.119 87.1875C194.119 107.485 180.577 126.178 157.883 137.128ZM115.547 13.95C118.089 13.95 120.169 12.3806 120.169 10.4625V3.4875C120.169 1.56937 118.089 0 115.547 0C113.005 0 110.925 1.56937 110.925 3.4875V10.4625C110.925 12.3806 113.005 13.95 115.547 13.95ZM226.472 83.7H217.228C214.686 83.7 212.606 85.2694 212.606 87.1875C212.606 89.1056 214.686 90.675 217.228 90.675H226.472C229.014 90.675 231.094 89.1056 231.094 87.1875C231.094 85.2694 229.014 83.7 226.472 83.7ZM13.8656 83.7H4.62187C2.07984 83.7 0 85.2694 0 87.1875C0 89.1056 2.07984 90.675 4.62187 90.675H13.8656C16.4077 90.675 18.4875 89.1056 18.4875 87.1875C18.4875 85.2694 16.4077 83.7 13.8656 83.7ZM187.463 36.4095C188.665 36.4095 189.82 36.0607 190.745 35.3981L197.262 30.4807C199.064 29.1206 199.064 26.9235 197.262 25.5634C195.459 24.2032 192.547 24.2032 190.745 25.5634L184.228 30.4807C182.425 31.8409 182.425 34.038 184.228 35.3981C185.152 36.0956 186.308 36.4095 187.509 36.4095H187.463Z" fill="#0861EB"/>
<path d="M40.2954 139.385L33.8405 144.384C32.0551 145.766 32.0551 147.999 33.8405 149.382C34.7561 150.091 35.9006 150.41 37.0909 150.41C38.2811 150.41 39.4256 150.055 40.3412 149.382L46.7962 144.384C48.5816 143.001 48.5816 140.768 46.7962 139.385C45.0107 138.003 42.1266 138.003 40.3412 139.385H40.2954ZM189.171 139.385C187.385 138.003 184.501 138.003 182.716 139.385C180.93 140.768 180.93 143.001 182.716 144.384L189.171 149.382C190.086 150.091 191.231 150.41 192.421 150.41C193.611 150.41 194.756 150.055 195.672 149.382C197.457 147.999 197.457 145.766 195.672 144.384L189.217 139.385H189.171ZM40.2954 34.1045C41.211 34.8135 42.3555 35.1325 43.5458 35.1325C44.7361 35.1325 45.8806 34.778 46.7962 34.1045C48.5816 32.722 48.5816 30.4888 46.7962 29.1063L40.3412 24.1081C38.5558 22.7257 35.6717 22.7257 33.8863 24.1081C32.1009 25.4906 32.1009 27.7239 33.8863 29.1063L40.3412 34.1045H40.2954ZM114.733 54.8417C80.5357 54.8417 56.9135 83.6255 55.9063 84.8662C54.9907 86.0005 54.9907 87.4894 55.9063 88.6237C56.9135 89.8644 80.5357 118.648 114.733 118.648C148.931 118.648 172.553 89.8644 173.56 88.6237C174.476 87.4894 174.476 86.0005 173.56 84.8662C172.553 83.6255 148.931 54.8417 114.733 54.8417ZM114.733 111.559C90.241 111.559 70.9678 92.842 65.3369 86.7449C70.9678 80.6479 90.241 61.9313 114.733 61.9313C139.225 61.9313 158.498 80.6479 164.129 86.7449C158.498 92.842 139.225 111.559 114.733 111.559Z" fill="#0861EB"/>
<path d="M115.547 69.75C102.79 69.75 92.4375 77.562 92.4375 87.1875C92.4375 96.813 102.79 104.625 115.547 104.625C128.303 104.625 138.656 96.813 138.656 87.1875C138.656 77.562 128.303 69.75 115.547 69.75ZM115.547 97.65C107.921 97.65 101.681 92.9419 101.681 87.1875C101.681 81.4331 107.921 76.725 115.547 76.725C123.173 76.725 129.412 81.4331 129.412 87.1875C129.412 92.9419 123.173 97.65 115.547 97.65Z" fill="#0861EB"/>
</svg>
